solid OpenSCAD_Model
  facet normal 0 0 -1
    outer loop
      vertex -1.5 15 0
      vertex 1.5 15 0
      vertex 1.5 -15 0
    endloop
  endfacet
  facet normal 0 0 -1
    outer loop
      vertex -1.5 15 0
      vertex 1.5 -15 0
      vertex -1.5 -15 0
    endloop
  endfacet
  facet normal 0 0 -1
    outer loop
      vertex 1.5 15 0
      vertex -1.5 15 0
      vertex -1.5 45 0
    endloop
  endfacet
  facet normal -0 0 -1
    outer loop
      vertex 1.5 45 0
      vertex 1.5 15 0
      vertex -1.5 45 0
    endloop
  endfacet
  facet normal 1 -0 0
    outer loop
      vertex 1.5 14.9 1.5
      vertex 1.5 15 0
      vertex 1.5 15 1.5
    endloop
  endfacet
  facet normal 1 0 0
    outer loop
      vertex 1.5 15 0
      vertex 1.5 14.9 1.5
      vertex 1.5 -15 0
    endloop
  endfacet
  facet normal 0 -0.0501042 0.998744
    outer loop
      vertex -1.5 14.9 1.5
      vertex 1.5 -15 0
      vertex 1.5 14.9 1.5
    endloop
  endfacet
  facet normal 0 -0.0501042 0.998744
    outer loop
      vertex 1.5 -15 0
      vertex -1.5 14.9 1.5
      vertex -1.5 -15 0
    endloop
  endfacet
  facet normal 0 0 1
    outer loop
      vertex 1.5 15.1 1.5
      vertex -1.5 15.1 1.5
      vertex 1.5 15 1.5
    endloop
  endfacet
  facet normal 0 0 1
    outer loop
      vertex -1.5 14.9 1.5
      vertex 1.5 15 1.5
      vertex -1.5 15.1 1.5
    endloop
  endfacet
  facet normal 0 0 1
    outer loop
      vertex 1.5 15 1.5
      vertex -1.5 14.9 1.5
      vertex 1.5 14.9 1.5
    endloop
  endfacet
  facet normal -1 0 0
    outer loop
      vertex -1.5 15 0
      vertex -1.5 14.9 1.5
      vertex -1.5 15.1 1.5
    endloop
  endfacet
  facet normal -1 0 -0
    outer loop
      vertex -1.5 14.9 1.5
      vertex -1.5 15 0
      vertex -1.5 -15 0
    endloop
  endfacet
  facet normal -1 3.17891e-08 -2.11926e-09
    outer loop
      vertex -1.5 45 0
      vertex -1.5 15 0
      vertex -1.5 15.1 1.5
    endloop
  endfacet
  facet normal -0 0.0501042 0.998744
    outer loop
      vertex -1.5 45 0
      vertex 1.5 15.1 1.5
      vertex 1.5 45 0
    endloop
  endfacet
  facet normal 0 0.0501042 0.998744
    outer loop
      vertex 1.5 15.1 1.5
      vertex -1.5 45 0
      vertex -1.5 15.1 1.5
    endloop
  endfacet
  facet normal 1 -3.17891e-08 0
    outer loop
      vertex 1.5 15 1.5
      vertex 1.5 15 0
      vertex 1.5 45 0
    endloop
  endfacet
  facet normal 1 0 6.35783e-07
    outer loop
      vertex 1.5 15.1 1.5
      vertex 1.5 15 1.5
      vertex 1.5 45 0
    endloop
  endfacet
endsolid OpenSCAD_Model
