solid OpenSCAD_Model
  facet normal -1 0 0
    outer loop
      vertex 0 0 0
      vertex 0 8.22 19.2
      vertex 0 8.22 0
    endloop
  endfacet
  facet normal -1 -0 0
    outer loop
      vertex 0 8.22 19.2
      vertex 0 0 0
      vertex 0 0 19.2
    endloop
  endfacet
  facet normal 0 0 1
    outer loop
      vertex 8.22 8.22 19.2
      vertex 7.61 7.61 19.2
      vertex 8.22 0 19.2
    endloop
  endfacet
  facet normal 0 0 1
    outer loop
      vertex 8.22 8.22 19.2
      vertex 0.61 7.61 19.2
      vertex 7.61 7.61 19.2
    endloop
  endfacet
  facet normal 0 0 1
    outer loop
      vertex 0.61 7.61 19.2
      vertex 0 8.22 19.2
      vertex 0.61 0.61 19.2
    endloop
  endfacet
  facet normal -0 0 1
    outer loop
      vertex 0 8.22 19.2
      vertex 0.61 7.61 19.2
      vertex 8.22 8.22 19.2
    endloop
  endfacet
  facet normal -0 0 1
    outer loop
      vertex 7.61 0.61 19.2
      vertex 8.22 0 19.2
      vertex 7.61 7.61 19.2
    endloop
  endfacet
  facet normal -0 0 1
    outer loop
      vertex 0.61 0.61 19.2
      vertex 8.22 0 19.2
      vertex 7.61 0.61 19.2
    endloop
  endfacet
  facet normal 0 0 1
    outer loop
      vertex 0.61 0.61 19.2
      vertex 0 0 19.2
      vertex 8.22 0 19.2
    endloop
  endfacet
  facet normal 0 0 1
    outer loop
      vertex 0 0 19.2
      vertex 0.61 0.61 19.2
      vertex 0 8.22 19.2
    endloop
  endfacet
  facet normal 1 -0 0
    outer loop
      vertex 8.22 0 19.2
      vertex 8.22 8.22 0
      vertex 8.22 8.22 19.2
    endloop
  endfacet
  facet normal 1 0 0
    outer loop
      vertex 8.22 8.22 0
      vertex 8.22 0 19.2
      vertex 8.22 0 0
    endloop
  endfacet
  facet normal 0 1 -0
    outer loop
      vertex 5.41 8.22 0
      vertex 2.81 8.22 8.75
      vertex 5.41 8.22 8.75
    endloop
  endfacet
  facet normal 0 1 0
    outer loop
      vertex 2.81 8.22 8.75
      vertex 5.41 8.22 0
      vertex 2.81 8.22 0
    endloop
  endfacet
  facet normal 0 1 0
    outer loop
      vertex 5.41 8.22 8.75
      vertex 8.22 8.22 19.2
      vertex 6.02 8.22 8.75
    endloop
  endfacet
  facet normal 0 1 -0
    outer loop
      vertex 8.22 8.22 0
      vertex 6.02 8.22 8.75
      vertex 8.22 8.22 19.2
    endloop
  endfacet
  facet normal 0 1 0
    outer loop
      vertex 6.02 8.22 8.75
      vertex 8.22 8.22 0
      vertex 6.02 8.22 0
    endloop
  endfacet
  facet normal 0 1 0
    outer loop
      vertex 8.22 8.22 19.2
      vertex 5.41 8.22 8.75
      vertex 0 8.22 19.2
    endloop
  endfacet
  facet normal 0 1 -0
    outer loop
      vertex 2.81 8.22 8.75
      vertex 0 8.22 19.2
      vertex 5.41 8.22 8.75
    endloop
  endfacet
  facet normal 0 1 -0
    outer loop
      vertex 2.2 8.22 8.75
      vertex 0 8.22 19.2
      vertex 2.81 8.22 8.75
    endloop
  endfacet
  facet normal 0 1 0
    outer loop
      vertex 0 8.22 0
      vertex 2.2 8.22 8.75
      vertex 2.2 8.22 0
    endloop
  endfacet
  facet normal 0 1 0
    outer loop
      vertex 2.2 8.22 8.75
      vertex 0 8.22 0
      vertex 0 8.22 19.2
    endloop
  endfacet
  facet normal 0 0 -1
    outer loop
      vertex 2.2 0 0
      vertex 0.61 0.61 0
      vertex 2.2 0.61 0
    endloop
  endfacet
  facet normal -0 0 -1
    outer loop
      vertex 0.61 0.61 0
      vertex 0 0 0
      vertex 0.61 7.61 0
    endloop
  endfacet
  facet normal 0 0 -1
    outer loop
      vertex 0 0 0
      vertex 0.61 0.61 0
      vertex 2.2 0 0
    endloop
  endfacet
  facet normal 0 0 -1
    outer loop
      vertex 0.61 7.61 0
      vertex 2.2 8.22 0
      vertex 2.2 7.61 0
    endloop
  endfacet
  facet normal 0 0 -1
    outer loop
      vertex 0.61 7.61 0
      vertex 0 8.22 0
      vertex 2.2 8.22 0
    endloop
  endfacet
  facet normal 0 0 -1
    outer loop
      vertex 0 8.22 0
      vertex 0.61 7.61 0
      vertex 0 0 0
    endloop
  endfacet
  facet normal 0 0 -1
    outer loop
      vertex 8.22 0 0
      vertex 7.61 0.61 0
      vertex 8.22 8.22 0
    endloop
  endfacet
  facet normal 0 0 -1
    outer loop
      vertex 6.02 0 0
      vertex 7.61 0.61 0
      vertex 8.22 0 0
    endloop
  endfacet
  facet normal -0 0 -1
    outer loop
      vertex 7.61 0.61 0
      vertex 6.02 0 0
      vertex 6.02 0.61 0
    endloop
  endfacet
  facet normal 0 0 -1
    outer loop
      vertex 7.61 7.61 0
      vertex 8.22 8.22 0
      vertex 7.61 0.61 0
    endloop
  endfacet
  facet normal 0 0 -1
    outer loop
      vertex 6.02 8.22 0
      vertex 7.61 7.61 0
      vertex 6.02 7.61 0
    endloop
  endfacet
  facet normal 0 0 -1
    outer loop
      vertex 7.61 7.61 0
      vertex 6.02 8.22 0
      vertex 8.22 8.22 0
    endloop
  endfacet
  facet normal 0 0 -1
    outer loop
      vertex 2.81 0 0
      vertex 5.41 0.61 0
      vertex 5.41 0 0
    endloop
  endfacet
  facet normal -0 0 -1
    outer loop
      vertex 5.41 0.61 0
      vertex 2.81 0 0
      vertex 2.81 0.61 0
    endloop
  endfacet
  facet normal 0 0 -1
    outer loop
      vertex 2.81 7.61 0
      vertex 5.41 8.22 0
      vertex 5.41 7.61 0
    endloop
  endfacet
  facet normal -0 0 -1
    outer loop
      vertex 5.41 8.22 0
      vertex 2.81 7.61 0
      vertex 2.81 8.22 0
    endloop
  endfacet
  facet normal 0 -1 0
    outer loop
      vertex 2.81 0 8.75
      vertex 2.81 0 2.3
      vertex 5.41 0 8.75
    endloop
  endfacet
  facet normal 0 -1 0
    outer loop
      vertex 2.81 0 0
      vertex 2.81 0 2.3
      vertex 2.81 0 8.75
    endloop
  endfacet
  facet normal 0 -1 0
    outer loop
      vertex 5.41 0 0
      vertex 2.81 0 3.8147e-07
      vertex 2.81 0 0
    endloop
  endfacet
  facet normal 0 -1 -0
    outer loop
      vertex 2.81 0 2.3
      vertex 2.81 0 0
      vertex 2.81 0 3.8147e-07
    endloop
  endfacet
  facet normal 0 -1 0
    outer loop
      vertex 2.81 0 8.75
      vertex 0 0 19.2
      vertex 2.2 0 8.75
    endloop
  endfacet
  facet normal 0 -1 0
    outer loop
      vertex 0 0 0
      vertex 2.2 0 8.75
      vertex 0 0 19.2
    endloop
  endfacet
  facet normal 0 -1 -0
    outer loop
      vertex 2.2 0 8.75
      vertex 0 0 0
      vertex 2.2 0 0
    endloop
  endfacet
  facet normal 0 -1 0
    outer loop
      vertex 0 0 19.2
      vertex 2.81 0 8.75
      vertex 8.22 0 19.2
    endloop
  endfacet
  facet normal 0 -1 0
    outer loop
      vertex 5.41 0 8.75
      vertex 8.22 0 19.2
      vertex 2.81 0 8.75
    endloop
  endfacet
  facet normal 0 -1 0
    outer loop
      vertex 6.02 0 8.75
      vertex 8.22 0 19.2
      vertex 5.41 0 8.75
    endloop
  endfacet
  facet normal 0 -1 0
    outer loop
      vertex 8.22 0 0
      vertex 6.02 0 8.75
      vertex 6.02 0 0
    endloop
  endfacet
  facet normal 0 -1 0
    outer loop
      vertex 6.02 0 8.75
      vertex 8.22 0 0
      vertex 8.22 0 19.2
    endloop
  endfacet
  facet normal 0 -1 0
    outer loop
      vertex 5.41 0 2.3
      vertex 5.41 0 8.75
      vertex 2.81 0 2.3
    endloop
  endfacet
  facet normal 0 -1 0
    outer loop
      vertex 5.41 0 0
      vertex 5.41 0 2.3
      vertex 5.41 0 3.8147e-07
    endloop
  endfacet
  facet normal 0 -1 0
    outer loop
      vertex 5.41 0 2.3
      vertex 5.41 0 0
      vertex 5.41 0 8.75
    endloop
  endfacet
  facet normal 0 -1 0
    outer loop
      vertex 2.81 0 3.8147e-07
      vertex 5.41 0 0
      vertex 5.41 0 3.8147e-07
    endloop
  endfacet
  facet normal 1 -0 0
    outer loop
      vertex 0.61 0.61 19.2
      vertex 0.61 7.61 0
      vertex 0.61 7.61 19.2
    endloop
  endfacet
  facet normal 1 0 0
    outer loop
      vertex 0.61 7.61 0
      vertex 0.61 0.61 19.2
      vertex 0.61 0.61 0
    endloop
  endfacet
  facet normal -1 0 0
    outer loop
      vertex 7.61 7.61 0
      vertex 7.61 5.0082 8.75
      vertex 7.61 7.61 8.75
    endloop
  endfacet
  facet normal -1 0 0
    outer loop
      vertex 7.61 5.0082 8.75
      vertex 7.61 3.2118 8.75
      vertex 7.61 5.0082 10
    endloop
  endfacet
  facet normal -1 0 0
    outer loop
      vertex 7.61 7.61 0
      vertex 7.61 3.2118 8.75
      vertex 7.61 5.0082 8.75
    endloop
  endfacet
  facet normal -1 0 0
    outer loop
      vertex 7.61 0.61 0
      vertex 7.61 3.2118 8.75
      vertex 7.61 7.61 0
    endloop
  endfacet
  facet normal -1 -0 0
    outer loop
      vertex 7.61 0.61 8.75
      vertex 7.61 0.61 0
      vertex 7.61 0.61 10
    endloop
  endfacet
  facet normal -1 -0 0
    outer loop
      vertex 7.61 3.2118 8.75
      vertex 7.61 0.61 0
      vertex 7.61 0.61 8.75
    endloop
  endfacet
  facet normal -1 0 0
    outer loop
      vertex 7.61 5.0082 10
      vertex 7.61 7.61 19.2
      vertex 7.61 7.61 10
    endloop
  endfacet
  facet normal -1 0 0
    outer loop
      vertex 7.61 3.2118 10
      vertex 7.61 5.0082 10
      vertex 7.61 3.2118 8.75
    endloop
  endfacet
  facet normal -1 0 0
    outer loop
      vertex 7.61 5.0082 10
      vertex 7.61 3.2118 10
      vertex 7.61 7.61 19.2
    endloop
  endfacet
  facet normal -1 0 0
    outer loop
      vertex 7.61 0.61 19.2
      vertex 7.61 3.2118 10
      vertex 7.61 0.61 10
    endloop
  endfacet
  facet normal -1 0 0
    outer loop
      vertex 7.61 3.2118 10
      vertex 7.61 0.61 19.2
      vertex 7.61 7.61 19.2
    endloop
  endfacet
  facet normal -1 0 0
    outer loop
      vertex 7.61 0.61 19.2
      vertex 7.61 0.61 10
      vertex 7.61 0.61 0
    endloop
  endfacet
  facet normal 0 -1 0
    outer loop
      vertex 2.81 7.61 8.75
      vertex 4.06 7.61 7.5
      vertex 3.2118 7.61 8.75
    endloop
  endfacet
  facet normal 0 -1 -0
    outer loop
      vertex 4.06 7.61 7.5
      vertex 2.81 7.61 0
      vertex 4.16 7.61 7.5
    endloop
  endfacet
  facet normal 0 -1 0
    outer loop
      vertex 2.81 7.61 0
      vertex 4.06 7.61 7.5
      vertex 2.81 7.61 8.75
    endloop
  endfacet
  facet normal 0 -1 0
    outer loop
      vertex 4.76 7.61 10
      vertex 5.0082 7.61 8.75
      vertex 5.0082 7.61 10
    endloop
  endfacet
  facet normal 0 -1 0
    outer loop
      vertex 4.16 7.61 7.5
      vertex 5.0082 7.61 8.75
      vertex 4.76 7.61 10
    endloop
  endfacet
  facet normal 0 -1 0
    outer loop
      vertex 4.16 7.61 7.5
      vertex 5.41 7.61 8.75
      vertex 5.0082 7.61 8.75
    endloop
  endfacet
  facet normal 0 -1 0
    outer loop
      vertex 5.41 7.61 0
      vertex 4.16 7.61 7.5
      vertex 2.81 7.61 0
    endloop
  endfacet
  facet normal 0 -1 0
    outer loop
      vertex 4.16 7.61 7.5
      vertex 5.41 7.61 0
      vertex 5.41 7.61 8.75
    endloop
  endfacet
  facet normal 0 -1 0
    outer loop
      vertex 3.2118 7.61 8.75
      vertex 3.46 7.61 10
      vertex 3.2118 7.61 10
    endloop
  endfacet
  facet normal 0 -1 -0
    outer loop
      vertex 3.46 7.61 10
      vertex 3.2118 7.61 8.75
      vertex 4.06 7.61 7.5
    endloop
  endfacet
  facet normal 0 -1 0
    outer loop
      vertex 3.2118 7.61 10
      vertex 0.61 7.61 19.2
      vertex 0.61 7.61 10
    endloop
  endfacet
  facet normal 0 -1 0
    outer loop
      vertex 0.61 7.61 19.2
      vertex 0.61 7.61 8.75
      vertex 0.61 7.61 10
    endloop
  endfacet
  facet normal 0 -1 0
    outer loop
      vertex 0.61 7.61 0
      vertex 0.61 7.61 8.75
      vertex 0.61 7.61 19.2
    endloop
  endfacet
  facet normal 0 -1 0
    outer loop
      vertex 0.61 7.61 0
      vertex 2.2 7.61 8.75
      vertex 0.61 7.61 8.75
    endloop
  endfacet
  facet normal 0 -1 -0
    outer loop
      vertex 2.2 7.61 8.75
      vertex 0.61 7.61 0
      vertex 2.2 7.61 0
    endloop
  endfacet
  facet normal 0 -1 0
    outer loop
      vertex 3.46 7.61 10
      vertex 0.61 7.61 19.2
      vertex 3.2118 7.61 10
    endloop
  endfacet
  facet normal 0 -1 0
    outer loop
      vertex 0.61 7.61 19.2
      vertex 3.46 7.61 10
      vertex 7.61 7.61 19.2
    endloop
  endfacet
  facet normal 0 -1 0
    outer loop
      vertex 4.76 7.61 10
      vertex 7.61 7.61 19.2
      vertex 3.46 7.61 10
    endloop
  endfacet
  facet normal 0 -1 0
    outer loop
      vertex 5.0082 7.61 10
      vertex 7.61 7.61 19.2
      vertex 4.76 7.61 10
    endloop
  endfacet
  facet normal 0 -1 -0
    outer loop
      vertex 7.61 7.61 19.2
      vertex 5.0082 7.61 10
      vertex 7.61 7.61 10
    endloop
  endfacet
  facet normal 0 -1 0
    outer loop
      vertex 6.02 7.61 0
      vertex 7.61 7.61 8.75
      vertex 6.02 7.61 8.75
    endloop
  endfacet
  facet normal 0 -1 -0
    outer loop
      vertex 7.61 7.61 8.75
      vertex 6.02 7.61 0
      vertex 7.61 7.61 0
    endloop
  endfacet
  facet normal 0 1 0
    outer loop
      vertex 4.06 0.61 7.5
      vertex 2.81 0.61 8.75
      vertex 3.46 0.61 10
    endloop
  endfacet
  facet normal 0 1 0
    outer loop
      vertex 2.81 0.61 0
      vertex 4.06 0.61 7.5
      vertex 5.41 0.61 0
    endloop
  endfacet
  facet normal 0 1 0
    outer loop
      vertex 4.06 0.61 7.5
      vertex 2.81 0.61 0
      vertex 2.81 0.61 8.75
    endloop
  endfacet
  facet normal 0 1 0
    outer loop
      vertex 7.61 0.61 19.2
      vertex 4.76 0.61 10
      vertex 0.61 0.61 19.2
    endloop
  endfacet
  facet normal 0 1 0
    outer loop
      vertex 7.61 0.61 19.2
      vertex 6.02 0.61 8.75
      vertex 4.76 0.61 10
    endloop
  endfacet
  facet normal 0 1 -0
    outer loop
      vertex 7.61 0.61 0
      vertex 6.02 0.61 8.75
      vertex 7.61 0.61 19.2
    endloop
  endfacet
  facet normal 0 1 0
    outer loop
      vertex 6.02 0.61 8.75
      vertex 7.61 0.61 0
      vertex 6.02 0.61 0
    endloop
  endfacet
  facet normal 0 1 -0
    outer loop
      vertex 3.46 0.61 10
      vertex 0.61 0.61 19.2
      vertex 4.76 0.61 10
    endloop
  endfacet
  facet normal 0 1 0
    outer loop
      vertex 2.2 0.61 8.75
      vertex 3.46 0.61 10
      vertex 2.81 0.61 8.75
    endloop
  endfacet
  facet normal 0 1 0
    outer loop
      vertex 3.46 0.61 10
      vertex 2.2 0.61 8.75
      vertex 0.61 0.61 19.2
    endloop
  endfacet
  facet normal 0 1 0
    outer loop
      vertex 0.61 0.61 0
      vertex 2.2 0.61 8.75
      vertex 2.2 0.61 0
    endloop
  endfacet
  facet normal 0 1 0
    outer loop
      vertex 2.2 0.61 8.75
      vertex 0.61 0.61 0
      vertex 0.61 0.61 19.2
    endloop
  endfacet
  facet normal 0 1 -0
    outer loop
      vertex 5.41 0.61 8.75
      vertex 4.76 0.61 10
      vertex 6.02 0.61 8.75
    endloop
  endfacet
  facet normal 0 1 0
    outer loop
      vertex 5.41 0.61 8.75
      vertex 4.16 0.61 7.5
      vertex 4.76 0.61 10
    endloop
  endfacet
  facet normal 0 1 0
    outer loop
      vertex 4.16 0.61 7.5
      vertex 5.41 0.61 0
      vertex 4.06 0.61 7.5
    endloop
  endfacet
  facet normal 0 1 -0
    outer loop
      vertex 5.41 0.61 0
      vertex 4.16 0.61 7.5
      vertex 5.41 0.61 8.75
    endloop
  endfacet
  facet normal 1 -0 0
    outer loop
      vertex 2.2 0 8.75
      vertex 2.2 0.61 0
      vertex 2.2 0.61 8.75
    endloop
  endfacet
  facet normal 1 0 0
    outer loop
      vertex 2.2 0.61 0
      vertex 2.2 0 8.75
      vertex 2.2 0 0
    endloop
  endfacet
  facet normal 1 -0 0
    outer loop
      vertex 2.2 7.61 8.75
      vertex 2.2 8.22 0
      vertex 2.2 8.22 8.75
    endloop
  endfacet
  facet normal 1 0 0
    outer loop
      vertex 2.2 7.61 8.75
      vertex 2.2 7.61 0
      vertex 2.2 8.22 0
    endloop
  endfacet
  facet normal 0 0 -1
    outer loop
      vertex 0.61 5.0082 8.75
      vertex 2.81 7.61 8.75
      vertex 3.2118 7.61 8.75
    endloop
  endfacet
  facet normal -0 0 -1
    outer loop
      vertex 2.81 7.61 8.75
      vertex 0.61 5.0082 8.75
      vertex 2.2 7.61 8.75
    endloop
  endfacet
  facet normal -0 0 -1
    outer loop
      vertex 2.2 7.61 8.75
      vertex 0.61 5.0082 8.75
      vertex 0.61 7.61 8.75
    endloop
  endfacet
  facet normal 0 0 -1
    outer loop
      vertex 2.2 7.61 8.75
      vertex 2.81 8.22 8.75
      vertex 2.81 7.61 8.75
    endloop
  endfacet
  facet normal -0 0 -1
    outer loop
      vertex 2.81 8.22 8.75
      vertex 2.2 7.61 8.75
      vertex 2.2 8.22 8.75
    endloop
  endfacet
  facet normal 0 0 -1
    outer loop
      vertex 2.2 0 8.75
      vertex 2.81 0.61 8.75
      vertex 2.81 0 8.75
    endloop
  endfacet
  facet normal -0 0 -1
    outer loop
      vertex 2.81 0.61 8.75
      vertex 2.2 0 8.75
      vertex 2.2 0.61 8.75
    endloop
  endfacet
  facet normal -1 0 0
    outer loop
      vertex 2.81 0 0
      vertex 2.81 0.61 8.75
      vertex 2.81 0.61 0
    endloop
  endfacet
  facet normal -1 -0 0
    outer loop
      vertex 2.81 0.61 8.75
      vertex 2.81 0 0
      vertex 2.81 0 8.75
    endloop
  endfacet
  facet normal -1 0 0
    outer loop
      vertex 2.81 8.22 0
      vertex 2.81 7.61 8.75
      vertex 2.81 8.22 8.75
    endloop
  endfacet
  facet normal -1 0 0
    outer loop
      vertex 2.81 7.61 0
      vertex 2.81 7.61 8.75
      vertex 2.81 8.22 0
    endloop
  endfacet
  facet normal 1 -0 0
    outer loop
      vertex 5.41 7.61 8.75
      vertex 5.41 8.22 0
      vertex 5.41 8.22 8.75
    endloop
  endfacet
  facet normal 1 0 0
    outer loop
      vertex 5.41 7.61 8.75
      vertex 5.41 7.61 0
      vertex 5.41 8.22 0
    endloop
  endfacet
  facet normal 1 -0 0
    outer loop
      vertex 5.41 0 8.75
      vertex 5.41 0.61 0
      vertex 5.41 0.61 8.75
    endloop
  endfacet
  facet normal 1 0 0
    outer loop
      vertex 5.41 0.61 0
      vertex 5.41 0 8.75
      vertex 5.41 0 0
    endloop
  endfacet
  facet normal 0 0 -1
    outer loop
      vertex 5.41 7.61 8.75
      vertex 6.02 8.22 8.75
      vertex 6.02 7.61 8.75
    endloop
  endfacet
  facet normal -0 0 -1
    outer loop
      vertex 6.02 8.22 8.75
      vertex 5.41 7.61 8.75
      vertex 5.41 8.22 8.75
    endloop
  endfacet
  facet normal 0 0 -1
    outer loop
      vertex 5.41 0 8.75
      vertex 6.02 0.61 8.75
      vertex 6.02 0 8.75
    endloop
  endfacet
  facet normal -0 0 -1
    outer loop
      vertex 6.02 0.61 8.75
      vertex 5.41 0 8.75
      vertex 5.41 0.61 8.75
    endloop
  endfacet
  facet normal 0 0 -1
    outer loop
      vertex 7.61 5.0082 8.75
      vertex 6.02 7.61 8.75
      vertex 7.61 7.61 8.75
    endloop
  endfacet
  facet normal 0 0 -1
    outer loop
      vertex 7.61 5.0082 8.75
      vertex 5.41 7.61 8.75
      vertex 6.02 7.61 8.75
    endloop
  endfacet
  facet normal -0 -0 -1
    outer loop
      vertex 5.41 7.61 8.75
      vertex 7.61 5.0082 8.75
      vertex 5.0082 7.61 8.75
    endloop
  endfacet
  facet normal -1 0 0
    outer loop
      vertex 6.02 8.22 0
      vertex 6.02 7.61 8.75
      vertex 6.02 8.22 8.75
    endloop
  endfacet
  facet normal -1 0 0
    outer loop
      vertex 6.02 7.61 0
      vertex 6.02 7.61 8.75
      vertex 6.02 8.22 0
    endloop
  endfacet
  facet normal -1 0 0
    outer loop
      vertex 6.02 0 0
      vertex 6.02 0.61 8.75
      vertex 6.02 0.61 0
    endloop
  endfacet
  facet normal -1 -0 0
    outer loop
      vertex 6.02 0.61 8.75
      vertex 6.02 0 0
      vertex 6.02 0 8.75
    endloop
  endfacet
  facet normal -1 0 0
    outer loop
      vertex 2.81 -0.75 1.15
      vertex 2.81 0 3.8147e-07
      vertex 2.81 -0.1 3.8147e-07
    endloop
  endfacet
  facet normal -1 0 0
    outer loop
      vertex 2.81 0 3.8147e-07
      vertex 2.81 -0.75 1.15
      vertex 2.81 0 2.3
    endloop
  endfacet
  facet normal -1 -0 0
    outer loop
      vertex 2.81 0 2.3
      vertex 2.81 -0.75 1.15
      vertex 2.81 -0.75 2.3
    endloop
  endfacet
  facet normal -0 0 1
    outer loop
      vertex 2.81 0 2.3
      vertex 5.41 -0.75 2.3
      vertex 5.41 0 2.3
    endloop
  endfacet
  facet normal 0 0 1
    outer loop
      vertex 5.41 -0.75 2.3
      vertex 2.81 0 2.3
      vertex 2.81 -0.75 2.3
    endloop
  endfacet
  facet normal 1 -0 0
    outer loop
      vertex 5.41 -0.75 1.15
      vertex 5.41 0 3.8147e-07
      vertex 5.41 0 2.3
    endloop
  endfacet
  facet normal 1 0 0
    outer loop
      vertex 5.41 -0.75 1.15
      vertex 5.41 0 2.3
      vertex 5.41 -0.75 2.3
    endloop
  endfacet
  facet normal 1 0 0
    outer loop
      vertex 5.41 0 3.8147e-07
      vertex 5.41 -0.75 1.15
      vertex 5.41 -0.1 3.8147e-07
    endloop
  endfacet
  facet normal 0 -1 0
    outer loop
      vertex 2.81 -0.75 1.15
      vertex 5.41 -0.75 2.3
      vertex 2.81 -0.75 2.3
    endloop
  endfacet
  facet normal 0 -1 -0
    outer loop
      vertex 5.41 -0.75 2.3
      vertex 2.81 -0.75 1.15
      vertex 5.41 -0.75 1.15
    endloop
  endfacet
  facet normal 0 -0.870563 -0.492057
    outer loop
      vertex 2.81 -0.1 3.8147e-07
      vertex 5.41 -0.75 1.15
      vertex 2.81 -0.75 1.15
    endloop
  endfacet
  facet normal 0 -0.870563 -0.492057
    outer loop
      vertex 5.41 -0.75 1.15
      vertex 2.81 -0.1 3.8147e-07
      vertex 5.41 -0.1 3.8147e-07
    endloop
  endfacet
  facet normal 0 0 -1
    outer loop
      vertex 2.81 -0.1 3.8147e-07
      vertex 5.41 0 3.8147e-07
      vertex 5.41 -0.1 3.8147e-07
    endloop
  endfacet
  facet normal -0 0 -1
    outer loop
      vertex 5.41 0 3.8147e-07
      vertex 2.81 -0.1 3.8147e-07
      vertex 2.81 0 3.8147e-07
    endloop
  endfacet
  facet normal 1 -0 0
    outer loop
      vertex 5.41 8.22 2.3
      vertex 5.41 8.97 1.15
      vertex 5.41 8.97 2.3
    endloop
  endfacet
  facet normal 1 0 0
    outer loop
      vertex 5.41 8.22 3.8147e-07
      vertex 5.41 8.97 1.15
      vertex 5.41 8.22 2.3
    endloop
  endfacet
  facet normal 1 0 0
    outer loop
      vertex 5.41 8.97 1.15
      vertex 5.41 8.22 3.8147e-07
      vertex 5.41 8.32 3.8147e-07
    endloop
  endfacet
  facet normal -0 0 1
    outer loop
      vertex 2.81 8.97 2.3
      vertex 5.41 8.22 2.3
      vertex 5.41 8.97 2.3
    endloop
  endfacet
  facet normal 0 0 1
    outer loop
      vertex 5.41 8.22 2.3
      vertex 2.81 8.97 2.3
      vertex 2.81 8.22 2.3
    endloop
  endfacet
  facet normal -1 0 0
    outer loop
      vertex 2.81 8.22 3.8147e-07
      vertex 2.81 8.97 1.15
      vertex 2.81 8.32 3.8147e-07
    endloop
  endfacet
  facet normal -1 -0 0
    outer loop
      vertex 2.81 8.97 1.15
      vertex 2.81 8.22 3.8147e-07
      vertex 2.81 8.22 2.3
    endloop
  endfacet
  facet normal -1 0 0
    outer loop
      vertex 2.81 8.97 1.15
      vertex 2.81 8.22 2.3
      vertex 2.81 8.97 2.3
    endloop
  endfacet
  facet normal 0 -1 0
    outer loop
      vertex 2.81 8.22 3.8147e-07
      vertex 5.41 8.22 2.3
      vertex 2.81 8.22 2.3
    endloop
  endfacet
  facet normal 0 -1 -0
    outer loop
      vertex 5.41 8.22 2.3
      vertex 2.81 8.22 3.8147e-07
      vertex 5.41 8.22 3.8147e-07
    endloop
  endfacet
  facet normal 0 1 -0
    outer loop
      vertex 5.41 8.97 1.15
      vertex 2.81 8.97 2.3
      vertex 5.41 8.97 2.3
    endloop
  endfacet
  facet normal 0 1 0
    outer loop
      vertex 2.81 8.97 2.3
      vertex 5.41 8.97 1.15
      vertex 2.81 8.97 1.15
    endloop
  endfacet
  facet normal 0 0.870563 -0.492057
    outer loop
      vertex 5.41 8.32 3.8147e-07
      vertex 2.81 8.97 1.15
      vertex 5.41 8.97 1.15
    endloop
  endfacet
  facet normal 0 0.870563 -0.492057
    outer loop
      vertex 2.81 8.97 1.15
      vertex 5.41 8.32 3.8147e-07
      vertex 2.81 8.32 3.8147e-07
    endloop
  endfacet
  facet normal 0 0 -1
    outer loop
      vertex 2.81 8.22 3.8147e-07
      vertex 5.41 8.32 3.8147e-07
      vertex 5.41 8.22 3.8147e-07
    endloop
  endfacet
  facet normal -0 0 -1
    outer loop
      vertex 5.41 8.32 3.8147e-07
      vertex 2.81 8.22 3.8147e-07
      vertex 2.81 8.32 3.8147e-07
    endloop
  endfacet
  facet normal -1 0 0
    outer loop
      vertex 0.61 0.61 8.75
      vertex 0.61 3.2118 10
      vertex 0.61 3.2118 8.75
    endloop
  endfacet
  facet normal -1 -0 0
    outer loop
      vertex 0.61 3.2118 10
      vertex 0.61 0.61 8.75
      vertex 0.61 0.61 10
    endloop
  endfacet
  facet normal -1 0 0
    outer loop
      vertex 0.61 5.0082 8.75
      vertex 0.61 7.61 10
      vertex 0.61 7.61 8.75
    endloop
  endfacet
  facet normal -1 -0 0
    outer loop
      vertex 0.61 7.61 10
      vertex 0.61 5.0082 8.75
      vertex 0.61 5.0082 10
    endloop
  endfacet
  facet normal 0 0 1
    outer loop
      vertex 0.61 3.2118 10
      vertex 0.61 0.61 10
      vertex 3.2118 0.61 10
    endloop
  endfacet
  facet normal 0 0 1
    outer loop
      vertex 7.61 3.2118 10
      vertex 5.0082 0.61 10
      vertex 7.61 0.61 10
    endloop
  endfacet
  facet normal 0 0 1
    outer loop
      vertex 7.61 7.61 10
      vertex 5.0082 7.61 10
      vertex 7.61 5.0082 10
    endloop
  endfacet
  facet normal -0 0 1
    outer loop
      vertex 0.61 7.61 10
      vertex 0.61 5.0082 10
      vertex 3.2118 7.61 10
    endloop
  endfacet
  facet normal 0 0 -1
    outer loop
      vertex 3.2118 0.61 8.75
      vertex 0.61 0.61 8.75
      vertex 0.61 3.2118 8.75
    endloop
  endfacet
  facet normal 0 0 -1
    outer loop
      vertex 7.61 0.61 8.75
      vertex 5.0082 0.61 8.75
      vertex 7.61 3.2118 8.75
    endloop
  endfacet
  facet normal 0 -1 0
    outer loop
      vertex 0.61 0.61 8.75
      vertex 3.2118 0.61 10
      vertex 0.61 0.61 10
    endloop
  endfacet
  facet normal 0 -1 -0
    outer loop
      vertex 3.2118 0.61 10
      vertex 0.61 0.61 8.75
      vertex 3.2118 0.61 8.75
    endloop
  endfacet
  facet normal 0 -1 0
    outer loop
      vertex 5.0082 0.61 8.75
      vertex 7.61 0.61 10
      vertex 5.0082 0.61 10
    endloop
  endfacet
  facet normal 0 -1 -0
    outer loop
      vertex 7.61 0.61 10
      vertex 5.0082 0.61 8.75
      vertex 7.61 0.61 8.75
    endloop
  endfacet
  facet normal -0.707107 -0.707107 0
    outer loop
      vertex 7.61 5.0082 8.75
      vertex 5.0082 7.61 10
      vertex 5.0082 7.61 8.75
    endloop
  endfacet
  facet normal -0.707107 -0.707107 0
    outer loop
      vertex 5.0082 7.61 10
      vertex 7.61 5.0082 8.75
      vertex 7.61 5.0082 10
    endloop
  endfacet
  facet normal 0.707107 -0.707107 0
    outer loop
      vertex 0.61 5.0082 10
      vertex 3.2118 7.61 8.75
      vertex 3.2118 7.61 10
    endloop
  endfacet
  facet normal 0.707107 -0.707107 0
    outer loop
      vertex 3.2118 7.61 8.75
      vertex 0.61 5.0082 10
      vertex 0.61 5.0082 8.75
    endloop
  endfacet
  facet normal 0.707107 0.707107 0
    outer loop
      vertex 3.2118 0.61 10
      vertex 0.61 3.2118 8.75
      vertex 0.61 3.2118 10
    endloop
  endfacet
  facet normal 0.707107 0.707107 0
    outer loop
      vertex 0.61 3.2118 8.75
      vertex 3.2118 0.61 10
      vertex 3.2118 0.61 8.75
    endloop
  endfacet
  facet normal -0.707107 0.707107 0
    outer loop
      vertex 5.0082 0.61 8.75
      vertex 7.61 3.2118 10
      vertex 7.61 3.2118 8.75
    endloop
  endfacet
  facet normal -0.707107 0.707107 0
    outer loop
      vertex 7.61 3.2118 10
      vertex 5.0082 0.61 8.75
      vertex 5.0082 0.61 10
    endloop
  endfacet
  facet normal -0 0 1
    outer loop
      vertex 3.46 7.61 10
      vertex 4.76 0.61 10
      vertex 4.76 7.61 10
    endloop
  endfacet
  facet normal 0 0 1
    outer loop
      vertex 4.76 0.61 10
      vertex 3.46 7.61 10
      vertex 3.46 0.61 10
    endloop
  endfacet
  facet normal -0.972387 0 -0.233373
    outer loop
      vertex 4.06 0.61 7.5
      vertex 3.46 7.61 10
      vertex 4.06 7.61 7.5
    endloop
  endfacet
  facet normal -0.972387 -0 -0.233373
    outer loop
      vertex 3.46 7.61 10
      vertex 4.06 0.61 7.5
      vertex 3.46 0.61 10
    endloop
  endfacet
  facet normal 0.972387 0 -0.233373
    outer loop
      vertex 4.76 0.61 10
      vertex 4.16 7.61 7.5
      vertex 4.76 7.61 10
    endloop
  endfacet
  facet normal 0.972387 0 -0.233373
    outer loop
      vertex 4.16 7.61 7.5
      vertex 4.76 0.61 10
      vertex 4.16 0.61 7.5
    endloop
  endfacet
  facet normal 0 0 -1
    outer loop
      vertex 4.06 0.61 7.5
      vertex 4.16 7.61 7.5
      vertex 4.16 0.61 7.5
    endloop
  endfacet
  facet normal -0 0 -1
    outer loop
      vertex 4.16 7.61 7.5
      vertex 4.06 0.61 7.5
      vertex 4.06 7.61 7.5
    endloop
  endfacet
endsolid OpenSCAD_Model
