solid OpenSCAD_Model
  facet normal -1 0 0
    outer loop
      vertex 0 0 0
      vertex 0 8.22 19.2
      vertex 0 8.22 0
    endloop
  endfacet
  facet normal -1 -0 0
    outer loop
      vertex 0 8.22 19.2
      vertex 0 0 0
      vertex 0 0 19.2
    endloop
  endfacet
  facet normal 0 0 1
    outer loop
      vertex 8.22 8.22 19.2
      vertex 7.61 7.61 19.2
      vertex 8.22 0 19.2
    endloop
  endfacet
  facet normal 0 0 1
    outer loop
      vertex 8.22 8.22 19.2
      vertex 0.61 7.61 19.2
      vertex 7.61 7.61 19.2
    endloop
  endfacet
  facet normal 0 0 1
    outer loop
      vertex 0.61 7.61 19.2
      vertex 0 8.22 19.2
      vertex 0.61 0.61 19.2
    endloop
  endfacet
  facet normal -0 0 1
    outer loop
      vertex 0 8.22 19.2
      vertex 0.61 7.61 19.2
      vertex 8.22 8.22 19.2
    endloop
  endfacet
  facet normal -0 0 1
    outer loop
      vertex 7.61 0.61 19.2
      vertex 8.22 0 19.2
      vertex 7.61 7.61 19.2
    endloop
  endfacet
  facet normal -0 0 1
    outer loop
      vertex 0.61 0.61 19.2
      vertex 8.22 0 19.2
      vertex 7.61 0.61 19.2
    endloop
  endfacet
  facet normal 0 0 1
    outer loop
      vertex 0.61 0.61 19.2
      vertex 0 0 19.2
      vertex 8.22 0 19.2
    endloop
  endfacet
  facet normal 0 0 1
    outer loop
      vertex 0 0 19.2
      vertex 0.61 0.61 19.2
      vertex 0 8.22 19.2
    endloop
  endfacet
  facet normal 1 -0 0
    outer loop
      vertex 8.22 0 19.2
      vertex 8.22 8.22 0
      vertex 8.22 8.22 19.2
    endloop
  endfacet
  facet normal 1 0 0
    outer loop
      vertex 8.22 8.22 0
      vertex 8.22 0 19.2
      vertex 8.22 0 0
    endloop
  endfacet
  facet normal 0 1 -0
    outer loop
      vertex 8.22 8.22 0
      vertex 0 8.22 19.2
      vertex 8.22 8.22 19.2
    endloop
  endfacet
  facet normal 0 1 0
    outer loop
      vertex 0 8.22 19.2
      vertex 8.22 8.22 0
      vertex 0 8.22 0
    endloop
  endfacet
  facet normal 0 0 -1
    outer loop
      vertex 8.22 0 0
      vertex 7.61 0.61 0
      vertex 8.22 8.22 0
    endloop
  endfacet
  facet normal 0 0 -1
    outer loop
      vertex 8.22 0 0
      vertex 0.61 0.61 0
      vertex 7.61 0.61 0
    endloop
  endfacet
  facet normal -0 0 -1
    outer loop
      vertex 0.61 0.61 0
      vertex 0 0 0
      vertex 0.61 7.61 0
    endloop
  endfacet
  facet normal 0 0 -1
    outer loop
      vertex 0 0 0
      vertex 0.61 0.61 0
      vertex 8.22 0 0
    endloop
  endfacet
  facet normal 0 0 -1
    outer loop
      vertex 7.61 7.61 0
      vertex 8.22 8.22 0
      vertex 7.61 0.61 0
    endloop
  endfacet
  facet normal 0 0 -1
    outer loop
      vertex 0.61 7.61 0
      vertex 8.22 8.22 0
      vertex 7.61 7.61 0
    endloop
  endfacet
  facet normal 0 0 -1
    outer loop
      vertex 0.61 7.61 0
      vertex 0 8.22 0
      vertex 8.22 8.22 0
    endloop
  endfacet
  facet normal 0 0 -1
    outer loop
      vertex 0 8.22 0
      vertex 0.61 7.61 0
      vertex 0 0 0
    endloop
  endfacet
  facet normal 0 -1 0
    outer loop
      vertex 0 0 0
      vertex 8.22 0 19.2
      vertex 0 0 19.2
    endloop
  endfacet
  facet normal 0 -1 -0
    outer loop
      vertex 8.22 0 19.2
      vertex 0 0 0
      vertex 8.22 0 0
    endloop
  endfacet
  facet normal 1 -0 0
    outer loop
      vertex 0.61 0.61 19.2
      vertex 0.61 7.61 0
      vertex 0.61 7.61 19.2
    endloop
  endfacet
  facet normal 1 0 0
    outer loop
      vertex 0.61 7.61 0
      vertex 0.61 0.61 19.2
      vertex 0.61 0.61 0
    endloop
  endfacet
  facet normal -1 0 0
    outer loop
      vertex 7.61 7.61 0
      vertex 7.61 0.61 8.75
      vertex 7.61 7.61 8.75
    endloop
  endfacet
  facet normal -1 -0 0
    outer loop
      vertex 7.61 0.61 8.75
      vertex 7.61 0.61 0
      vertex 7.61 0.61 10.625
    endloop
  endfacet
  facet normal -1 0 0
    outer loop
      vertex 7.61 0.61 0
      vertex 7.61 0.61 8.75
      vertex 7.61 7.61 0
    endloop
  endfacet
  facet normal -1 0 0
    outer loop
      vertex 7.61 0.61 10.625
      vertex 7.61 7.61 19.2
      vertex 7.61 7.61 10.625
    endloop
  endfacet
  facet normal -1 0 0
    outer loop
      vertex 7.61 0.61 10.625
      vertex 7.61 0.61 19.2
      vertex 7.61 7.61 19.2
    endloop
  endfacet
  facet normal -1 0 0
    outer loop
      vertex 7.61 0.61 19.2
      vertex 7.61 0.61 10.625
      vertex 7.61 0.61 0
    endloop
  endfacet
  facet normal 0 1 -0
    outer loop
      vertex 7.61 0.61 0
      vertex 0.61 0.61 19.2
      vertex 7.61 0.61 19.2
    endloop
  endfacet
  facet normal 0 1 0
    outer loop
      vertex 0.61 0.61 19.2
      vertex 7.61 0.61 0
      vertex 0.61 0.61 0
    endloop
  endfacet
  facet normal 0 -1 0
    outer loop
      vertex 0.61 7.61 19.2
      vertex 0.61 7.61 10.625
      vertex 7.61 7.61 19.2
    endloop
  endfacet
  facet normal 0 -1 0
    outer loop
      vertex 0.61 7.61 19.2
      vertex 0.61 7.61 8.75
      vertex 0.61 7.61 10.625
    endloop
  endfacet
  facet normal 0 -1 0
    outer loop
      vertex 0.61 7.61 0
      vertex 0.61 7.61 8.75
      vertex 0.61 7.61 19.2
    endloop
  endfacet
  facet normal 0 -1 0
    outer loop
      vertex 0.61 7.61 0
      vertex 7.61 7.61 8.75
      vertex 0.61 7.61 8.75
    endloop
  endfacet
  facet normal 0 -1 -0
    outer loop
      vertex 7.61 7.61 8.75
      vertex 0.61 7.61 0
      vertex 7.61 7.61 0
    endloop
  endfacet
  facet normal 0 -1 -0
    outer loop
      vertex 7.61 7.61 19.2
      vertex 0.61 7.61 10.625
      vertex 7.61 7.61 10.625
    endloop
  endfacet
  facet normal 1 0 0
    outer loop
      vertex 5.41 -0.65 1.15
      vertex 5.41 -1.90735e-07 2.3
      vertex 5.41 -0.100001 2.3
    endloop
  endfacet
  facet normal 1 0 0
    outer loop
      vertex 5.41 -1.90735e-07 2.3
      vertex 5.41 -0.65 1.15
      vertex 5.41 -1.90735e-07 3.8147e-07
    endloop
  endfacet
  facet normal 1 0 0
    outer loop
      vertex 5.41 -1.90735e-07 3.8147e-07
      vertex 5.41 -0.65 1.15
      vertex 5.41 -0.100001 3.8147e-07
    endloop
  endfacet
  facet normal 0 -0.902134 0.431455
    outer loop
      vertex 2.81 -0.65 1.15
      vertex 5.41 -0.100001 2.3
      vertex 2.81 -0.100001 2.3
    endloop
  endfacet
  facet normal 0 -0.902134 0.431455
    outer loop
      vertex 5.41 -0.100001 2.3
      vertex 2.81 -0.65 1.15
      vertex 5.41 -0.65 1.15
    endloop
  endfacet
  facet normal 0 1 -0
    outer loop
      vertex 5.41 -1.90735e-07 3.8147e-07
      vertex 2.81 -1.90735e-07 2.3
      vertex 5.41 -1.90735e-07 2.3
    endloop
  endfacet
  facet normal 0 1 0
    outer loop
      vertex 2.81 -1.90735e-07 2.3
      vertex 5.41 -1.90735e-07 3.8147e-07
      vertex 2.81 -1.90735e-07 3.8147e-07
    endloop
  endfacet
  facet normal -0 0 1
    outer loop
      vertex 2.81 -1.90735e-07 2.3
      vertex 5.41 -0.100001 2.3
      vertex 5.41 -1.90735e-07 2.3
    endloop
  endfacet
  facet normal 0 0 1
    outer loop
      vertex 5.41 -0.100001 2.3
      vertex 2.81 -1.90735e-07 2.3
      vertex 2.81 -0.100001 2.3
    endloop
  endfacet
  facet normal -1 0 0
    outer loop
      vertex 2.81 -0.65 1.15
      vertex 2.81 -1.90735e-07 3.8147e-07
      vertex 2.81 -0.100001 3.8147e-07
    endloop
  endfacet
  facet normal -1 0 0
    outer loop
      vertex 2.81 -1.90735e-07 3.8147e-07
      vertex 2.81 -0.65 1.15
      vertex 2.81 -1.90735e-07 2.3
    endloop
  endfacet
  facet normal -1 -0 0
    outer loop
      vertex 2.81 -1.90735e-07 2.3
      vertex 2.81 -0.65 1.15
      vertex 2.81 -0.100001 2.3
    endloop
  endfacet
  facet normal 0 -0.902134 -0.431455
    outer loop
      vertex 2.81 -0.100001 3.8147e-07
      vertex 5.41 -0.65 1.15
      vertex 2.81 -0.65 1.15
    endloop
  endfacet
  facet normal 0 -0.902134 -0.431455
    outer loop
      vertex 5.41 -0.65 1.15
      vertex 2.81 -0.100001 3.8147e-07
      vertex 5.41 -0.100001 3.8147e-07
    endloop
  endfacet
  facet normal 0 0 -1
    outer loop
      vertex 2.81 -0.100001 3.8147e-07
      vertex 5.41 -1.90735e-07 3.8147e-07
      vertex 5.41 -0.100001 3.8147e-07
    endloop
  endfacet
  facet normal -0 0 -1
    outer loop
      vertex 5.41 -1.90735e-07 3.8147e-07
      vertex 2.81 -0.100001 3.8147e-07
      vertex 2.81 -1.90735e-07 3.8147e-07
    endloop
  endfacet
  facet normal -1 0 0
    outer loop
      vertex 2.81 8.22 3.8147e-07
      vertex 2.81 8.87 1.15
      vertex 2.81 8.32 3.8147e-07
    endloop
  endfacet
  facet normal -1 0 0
    outer loop
      vertex 2.81 8.22 2.3
      vertex 2.81 8.87 1.15
      vertex 2.81 8.22 3.8147e-07
    endloop
  endfacet
  facet normal -1 0 0
    outer loop
      vertex 2.81 8.87 1.15
      vertex 2.81 8.22 2.3
      vertex 2.81 8.32 2.3
    endloop
  endfacet
  facet normal 0 0.902134 0.431455
    outer loop
      vertex 5.41 8.87 1.15
      vertex 2.81 8.32 2.3
      vertex 5.41 8.32 2.3
    endloop
  endfacet
  facet normal 0 0.902134 0.431455
    outer loop
      vertex 2.81 8.32 2.3
      vertex 5.41 8.87 1.15
      vertex 2.81 8.87 1.15
    endloop
  endfacet
  facet normal 0 -1 0
    outer loop
      vertex 2.81 8.22 3.8147e-07
      vertex 5.41 8.22 2.3
      vertex 2.81 8.22 2.3
    endloop
  endfacet
  facet normal 0 -1 -0
    outer loop
      vertex 5.41 8.22 2.3
      vertex 2.81 8.22 3.8147e-07
      vertex 5.41 8.22 3.8147e-07
    endloop
  endfacet
  facet normal -0 0 1
    outer loop
      vertex 2.81 8.32 2.3
      vertex 5.41 8.22 2.3
      vertex 5.41 8.32 2.3
    endloop
  endfacet
  facet normal 0 0 1
    outer loop
      vertex 5.41 8.22 2.3
      vertex 2.81 8.32 2.3
      vertex 2.81 8.22 2.3
    endloop
  endfacet
  facet normal 1 -0 0
    outer loop
      vertex 5.41 8.22 2.3
      vertex 5.41 8.87 1.15
      vertex 5.41 8.32 2.3
    endloop
  endfacet
  facet normal 1 0 0
    outer loop
      vertex 5.41 8.22 3.8147e-07
      vertex 5.41 8.87 1.15
      vertex 5.41 8.22 2.3
    endloop
  endfacet
  facet normal 1 0 0
    outer loop
      vertex 5.41 8.87 1.15
      vertex 5.41 8.22 3.8147e-07
      vertex 5.41 8.32 3.8147e-07
    endloop
  endfacet
  facet normal 0 0.902134 -0.431455
    outer loop
      vertex 5.41 8.32 3.8147e-07
      vertex 2.81 8.87 1.15
      vertex 5.41 8.87 1.15
    endloop
  endfacet
  facet normal 0 0.902134 -0.431455
    outer loop
      vertex 2.81 8.87 1.15
      vertex 5.41 8.32 3.8147e-07
      vertex 2.81 8.32 3.8147e-07
    endloop
  endfacet
  facet normal 0 0 -1
    outer loop
      vertex 2.81 8.22 3.8147e-07
      vertex 5.41 8.32 3.8147e-07
      vertex 5.41 8.22 3.8147e-07
    endloop
  endfacet
  facet normal -0 0 -1
    outer loop
      vertex 5.41 8.32 3.8147e-07
      vertex 2.81 8.22 3.8147e-07
      vertex 2.81 8.32 3.8147e-07
    endloop
  endfacet
  facet normal -1 0 0
    outer loop
      vertex 0.61 0.61 8.75
      vertex 0.61 7.61 10.625
      vertex 0.61 7.61 8.75
    endloop
  endfacet
  facet normal -1 -0 0
    outer loop
      vertex 0.61 7.61 10.625
      vertex 0.61 0.61 8.75
      vertex 0.61 0.61 10.625
    endloop
  endfacet
  facet normal 0 0 1
    outer loop
      vertex 7.36 2.9618 10
      vertex 5.2582 0.86 10
      vertex 7.36 0.86 10
    endloop
  endfacet
  facet normal 0 0 1
    outer loop
      vertex 0.86 2.9618 10
      vertex 0.86 0.86 10
      vertex 2.9618 0.86 10
    endloop
  endfacet
  facet normal 0 0 1
    outer loop
      vertex 7.36 7.36 10
      vertex 5.2582 7.36 10
      vertex 7.36 5.2582 10
    endloop
  endfacet
  facet normal -0 0 1
    outer loop
      vertex 0.86 7.36 10
      vertex 0.86 5.2582 10
      vertex 2.9618 7.36 10
    endloop
  endfacet
  facet normal 0 0 -1
    outer loop
      vertex 7.61 0.61 8.75
      vertex 7.36 2.9618 8.75
      vertex 7.61 7.61 8.75
    endloop
  endfacet
  facet normal 0 0 -1
    outer loop
      vertex 7.61 0.61 8.75
      vertex 5.2582 0.86 8.75
      vertex 7.36 2.9618 8.75
    endloop
  endfacet
  facet normal 0 0 -1
    outer loop
      vertex 7.61 0.61 8.75
      vertex 2.9618 0.86 8.75
      vertex 5.2582 0.86 8.75
    endloop
  endfacet
  facet normal -0 0 -1
    outer loop
      vertex 0.86 2.9618 8.75
      vertex 0.61 0.61 8.75
      vertex 0.86 5.2582 8.75
    endloop
  endfacet
  facet normal -0 0 -1
    outer loop
      vertex 2.9618 0.86 8.75
      vertex 0.61 0.61 8.75
      vertex 0.86 2.9618 8.75
    endloop
  endfacet
  facet normal 0 0 -1
    outer loop
      vertex 0.61 0.61 8.75
      vertex 2.9618 0.86 8.75
      vertex 7.61 0.61 8.75
    endloop
  endfacet
  facet normal 0 0 -1
    outer loop
      vertex 7.36 5.2582 8.75
      vertex 7.61 7.61 8.75
      vertex 7.36 2.9618 8.75
    endloop
  endfacet
  facet normal 0 0 -1
    outer loop
      vertex 5.2582 7.36 8.75
      vertex 7.61 7.61 8.75
      vertex 7.36 5.2582 8.75
    endloop
  endfacet
  facet normal 0 0 -1
    outer loop
      vertex 2.9618 7.36 8.75
      vertex 7.61 7.61 8.75
      vertex 5.2582 7.36 8.75
    endloop
  endfacet
  facet normal 0 0 -1
    outer loop
      vertex 2.9618 7.36 8.75
      vertex 0.61 7.61 8.75
      vertex 7.61 7.61 8.75
    endloop
  endfacet
  facet normal 0 0 -1
    outer loop
      vertex 0.86 5.2582 8.75
      vertex 0.61 7.61 8.75
      vertex 2.9618 7.36 8.75
    endloop
  endfacet
  facet normal 0 0 -1
    outer loop
      vertex 0.61 7.61 8.75
      vertex 0.86 5.2582 8.75
      vertex 0.61 0.61 8.75
    endloop
  endfacet
  facet normal 0 -1 0
    outer loop
      vertex 0.61 0.61 10.625
      vertex 3.235 0.61 10
      vertex 7.61 0.61 10.625
    endloop
  endfacet
  facet normal 0 -1 0
    outer loop
      vertex 0.61 0.61 8.75
      vertex 3.235 0.61 10
      vertex 0.61 0.61 10.625
    endloop
  endfacet
  facet normal 0 -1 -0
    outer loop
      vertex 3.235 0.61 10
      vertex 0.61 0.61 8.75
      vertex 4.985 0.61 10
    endloop
  endfacet
  facet normal 0 -1 0
    outer loop
      vertex 4.985 0.61 10
      vertex 7.61 0.61 10.625
      vertex 3.235 0.61 10
    endloop
  endfacet
  facet normal 0 -1 0
    outer loop
      vertex 7.61 0.61 8.75
      vertex 4.985 0.61 10
      vertex 0.61 0.61 8.75
    endloop
  endfacet
  facet normal 0 -1 0
    outer loop
      vertex 4.985 0.61 10
      vertex 7.61 0.61 8.75
      vertex 7.61 0.61 10.625
    endloop
  endfacet
  facet normal -0.707107 -0.707107 0
    outer loop
      vertex 7.36 5.2582 8.75
      vertex 5.2582 7.36 10
      vertex 5.2582 7.36 8.75
    endloop
  endfacet
  facet normal -0.707107 -0.707107 0
    outer loop
      vertex 5.2582 7.36 10
      vertex 7.36 5.2582 8.75
      vertex 7.36 5.2582 10
    endloop
  endfacet
  facet normal 0.707107 0.707107 0
    outer loop
      vertex 2.9618 0.86 10
      vertex 0.86 2.9618 8.75
      vertex 0.86 2.9618 10
    endloop
  endfacet
  facet normal 0.707107 0.707107 0
    outer loop
      vertex 0.86 2.9618 8.75
      vertex 2.9618 0.86 10
      vertex 2.9618 0.86 8.75
    endloop
  endfacet
  facet normal -0.707107 0.707107 0
    outer loop
      vertex 5.2582 0.86 8.75
      vertex 7.36 2.9618 10
      vertex 7.36 2.9618 8.75
    endloop
  endfacet
  facet normal -0.707107 0.707107 0
    outer loop
      vertex 7.36 2.9618 10
      vertex 5.2582 0.86 8.75
      vertex 5.2582 0.86 10
    endloop
  endfacet
  facet normal 0.707107 -0.707107 0
    outer loop
      vertex 0.86 5.2582 10
      vertex 2.9618 7.36 8.75
      vertex 2.9618 7.36 10
    endloop
  endfacet
  facet normal 0.707107 -0.707107 0
    outer loop
      vertex 2.9618 7.36 8.75
      vertex 0.86 5.2582 10
      vertex 0.86 5.2582 8.75
    endloop
  endfacet
  facet normal 0 0 1
    outer loop
      vertex 7.61 7.61 10.625
      vertex 7.36 7.36 10.625
      vertex 7.61 0.61 10.625
    endloop
  endfacet
  facet normal 0 0 1
    outer loop
      vertex 7.61 7.61 10.625
      vertex 0.86 7.36 10.625
      vertex 7.36 7.36 10.625
    endloop
  endfacet
  facet normal 0 0 1
    outer loop
      vertex 0.86 7.36 10.625
      vertex 0.61 7.61 10.625
      vertex 0.86 0.86 10.625
    endloop
  endfacet
  facet normal -0 0 1
    outer loop
      vertex 0.61 7.61 10.625
      vertex 0.86 7.36 10.625
      vertex 7.61 7.61 10.625
    endloop
  endfacet
  facet normal -0 0 1
    outer loop
      vertex 7.36 0.86 10.625
      vertex 7.61 0.61 10.625
      vertex 7.36 7.36 10.625
    endloop
  endfacet
  facet normal -0 0 1
    outer loop
      vertex 0.86 0.86 10.625
      vertex 7.61 0.61 10.625
      vertex 7.36 0.86 10.625
    endloop
  endfacet
  facet normal 0 0 1
    outer loop
      vertex 0.86 0.86 10.625
      vertex 0.61 0.61 10.625
      vertex 7.61 0.61 10.625
    endloop
  endfacet
  facet normal 0 0 1
    outer loop
      vertex 0.61 0.61 10.625
      vertex 0.86 0.86 10.625
      vertex 0.61 7.61 10.625
    endloop
  endfacet
  facet normal 1 0 0
    outer loop
      vertex 0.86 7.36 10.625
      vertex 0.86 5.2582 10
      vertex 0.86 7.36 10
    endloop
  endfacet
  facet normal 1 0 0
    outer loop
      vertex 0.86 5.2582 10
      vertex 0.86 2.9618 10
      vertex 0.86 5.2582 8.75
    endloop
  endfacet
  facet normal 1 0 0
    outer loop
      vertex 0.86 7.36 10.625
      vertex 0.86 2.9618 10
      vertex 0.86 5.2582 10
    endloop
  endfacet
  facet normal 1 -0 0
    outer loop
      vertex 0.86 0.86 10.625
      vertex 0.86 2.9618 10
      vertex 0.86 7.36 10.625
    endloop
  endfacet
  facet normal 1 0 0
    outer loop
      vertex 0.86 2.9618 10
      vertex 0.86 0.86 10.625
      vertex 0.86 0.86 10
    endloop
  endfacet
  facet normal 1 0 0
    outer loop
      vertex 0.86 5.2582 8.75
      vertex 0.86 2.9618 10
      vertex 0.86 2.9618 8.75
    endloop
  endfacet
  facet normal -1 0 0
    outer loop
      vertex 7.36 5.2582 8.75
      vertex 7.36 2.9618 8.75
      vertex 7.36 5.2582 10
    endloop
  endfacet
  facet normal -1 0 0
    outer loop
      vertex 7.36 5.2582 10
      vertex 7.36 7.36 10.625
      vertex 7.36 7.36 10
    endloop
  endfacet
  facet normal -1 0 0
    outer loop
      vertex 7.36 2.9618 10
      vertex 7.36 5.2582 10
      vertex 7.36 2.9618 8.75
    endloop
  endfacet
  facet normal -1 0 0
    outer loop
      vertex 7.36 2.9618 10
      vertex 7.36 7.36 10.625
      vertex 7.36 5.2582 10
    endloop
  endfacet
  facet normal -1 0 0
    outer loop
      vertex 7.36 0.86 10.625
      vertex 7.36 2.9618 10
      vertex 7.36 0.86 10
    endloop
  endfacet
  facet normal -1 0 0
    outer loop
      vertex 7.36 2.9618 10
      vertex 7.36 0.86 10.625
      vertex 7.36 7.36 10.625
    endloop
  endfacet
  facet normal 0 1 0
    outer loop
      vertex 3.52964 0.86 9.10714
      vertex 2.9618 0.86 10
      vertex 3.235 0.86 10
    endloop
  endfacet
  facet normal 0 1 0
    outer loop
      vertex 3.52964 0.86 9.10714
      vertex 2.9618 0.86 8.75
      vertex 2.9618 0.86 10
    endloop
  endfacet
  facet normal 0 1 0
    outer loop
      vertex 2.9618 0.86 8.75
      vertex 3.52964 0.86 9.10714
      vertex 5.2582 0.86 8.75
    endloop
  endfacet
  facet normal 0 1 0
    outer loop
      vertex 5.2582 0.86 10
      vertex 4.69036 0.86 9.10714
      vertex 4.985 0.86 10
    endloop
  endfacet
  facet normal 0 1 0
    outer loop
      vertex 4.69036 0.86 9.10714
      vertex 5.2582 0.86 8.75
      vertex 3.52964 0.86 9.10714
    endloop
  endfacet
  facet normal 0 1 -0
    outer loop
      vertex 5.2582 0.86 8.75
      vertex 4.69036 0.86 9.10714
      vertex 5.2582 0.86 10
    endloop
  endfacet
  facet normal 0 1 0
    outer loop
      vertex 5.2582 0.86 10
      vertex 7.36 0.86 10.625
      vertex 7.36 0.86 10
    endloop
  endfacet
  facet normal 0 1 0
    outer loop
      vertex 4.985 0.86 10
      vertex 7.36 0.86 10.625
      vertex 5.2582 0.86 10
    endloop
  endfacet
  facet normal 0 1 0
    outer loop
      vertex 7.36 0.86 10.625
      vertex 4.985 0.86 10
      vertex 0.86 0.86 10.625
    endloop
  endfacet
  facet normal 0 1 -0
    outer loop
      vertex 3.235 0.86 10
      vertex 0.86 0.86 10.625
      vertex 4.985 0.86 10
    endloop
  endfacet
  facet normal 0 1 -0
    outer loop
      vertex 2.9618 0.86 10
      vertex 0.86 0.86 10.625
      vertex 3.235 0.86 10
    endloop
  endfacet
  facet normal 0 1 0
    outer loop
      vertex 0.86 0.86 10.625
      vertex 2.9618 0.86 10
      vertex 0.86 0.86 10
    endloop
  endfacet
  facet normal 0 -1 0
    outer loop
      vertex 4.69036 7.36 9.10714
      vertex 5.2582 7.36 10
      vertex 4.985 7.36 10
    endloop
  endfacet
  facet normal 0 -1 0
    outer loop
      vertex 4.69036 7.36 9.10714
      vertex 5.2582 7.36 8.75
      vertex 5.2582 7.36 10
    endloop
  endfacet
  facet normal 0 -1 0
    outer loop
      vertex 5.2582 7.36 8.75
      vertex 4.69036 7.36 9.10714
      vertex 2.9618 7.36 8.75
    endloop
  endfacet
  facet normal 0 -1 0
    outer loop
      vertex 2.9618 7.36 10
      vertex 3.52964 7.36 9.10714
      vertex 3.235 7.36 10
    endloop
  endfacet
  facet normal 0 -1 -0
    outer loop
      vertex 3.52964 7.36 9.10714
      vertex 2.9618 7.36 8.75
      vertex 4.69036 7.36 9.10714
    endloop
  endfacet
  facet normal 0 -1 0
    outer loop
      vertex 2.9618 7.36 8.75
      vertex 3.52964 7.36 9.10714
      vertex 2.9618 7.36 10
    endloop
  endfacet
  facet normal 0 -1 0
    outer loop
      vertex 2.9618 7.36 10
      vertex 0.86 7.36 10.625
      vertex 0.86 7.36 10
    endloop
  endfacet
  facet normal 0 -1 0
    outer loop
      vertex 3.235 7.36 10
      vertex 0.86 7.36 10.625
      vertex 2.9618 7.36 10
    endloop
  endfacet
  facet normal 0 -1 0
    outer loop
      vertex 0.86 7.36 10.625
      vertex 3.235 7.36 10
      vertex 7.36 7.36 10.625
    endloop
  endfacet
  facet normal 0 -1 0
    outer loop
      vertex 4.985 7.36 10
      vertex 7.36 7.36 10.625
      vertex 3.235 7.36 10
    endloop
  endfacet
  facet normal 0 -1 0
    outer loop
      vertex 5.2582 7.36 10
      vertex 7.36 7.36 10.625
      vertex 4.985 7.36 10
    endloop
  endfacet
  facet normal 0 -1 -0
    outer loop
      vertex 7.36 7.36 10.625
      vertex 5.2582 7.36 10
      vertex 7.36 7.36 10
    endloop
  endfacet
  facet normal -1 0 0
    outer loop
      vertex -0.75 -0.75 19.2
      vertex -0.75 8.97 20.2
      vertex -0.75 8.97 19.2
    endloop
  endfacet
  facet normal -1 -0 0
    outer loop
      vertex -0.75 8.97 20.2
      vertex -0.75 -0.75 19.2
      vertex -0.75 -0.75 20.2
    endloop
  endfacet
  facet normal 0 0 1
    outer loop
      vertex 8.97 8.97 20.2
      vertex 8.13448 8.13448 20.2
      vertex 8.97 -0.75 20.2
    endloop
  endfacet
  facet normal 0 0 1
    outer loop
      vertex 8.97 8.97 20.2
      vertex 0.0855202 8.13448 20.2
      vertex 8.13448 8.13448 20.2
    endloop
  endfacet
  facet normal 0 0 1
    outer loop
      vertex 0.0855202 8.13448 20.2
      vertex -0.75 8.97 20.2
      vertex 0.0855202 0.0855202 20.2
    endloop
  endfacet
  facet normal -0 0 1
    outer loop
      vertex -0.75 8.97 20.2
      vertex 0.0855202 8.13448 20.2
      vertex 8.97 8.97 20.2
    endloop
  endfacet
  facet normal -0 0 1
    outer loop
      vertex 8.13448 0.0855202 20.2
      vertex 8.97 -0.75 20.2
      vertex 8.13448 8.13448 20.2
    endloop
  endfacet
  facet normal -0 0 1
    outer loop
      vertex 0.0855202 0.0855202 20.2
      vertex 8.97 -0.75 20.2
      vertex 8.13448 0.0855202 20.2
    endloop
  endfacet
  facet normal 0 0 1
    outer loop
      vertex 0.0855202 0.0855202 20.2
      vertex -0.75 -0.75 20.2
      vertex 8.97 -0.75 20.2
    endloop
  endfacet
  facet normal 0 0 1
    outer loop
      vertex -0.75 -0.75 20.2
      vertex 0.0855202 0.0855202 20.2
      vertex -0.75 8.97 20.2
    endloop
  endfacet
  facet normal 1 -0 0
    outer loop
      vertex 8.97 -0.75 20.2
      vertex 8.97 8.97 19.2
      vertex 8.97 8.97 20.2
    endloop
  endfacet
  facet normal 1 0 0
    outer loop
      vertex 8.97 8.97 19.2
      vertex 8.97 -0.75 20.2
      vertex 8.97 -0.75 19.2
    endloop
  endfacet
  facet normal 0 1 -0
    outer loop
      vertex 8.97 8.97 19.2
      vertex -0.75 8.97 20.2
      vertex 8.97 8.97 20.2
    endloop
  endfacet
  facet normal 0 1 0
    outer loop
      vertex -0.75 8.97 20.2
      vertex 8.97 8.97 19.2
      vertex -0.75 8.97 19.2
    endloop
  endfacet
  facet normal 0 0 -1
    outer loop
      vertex 8.97 -0.75 19.2
      vertex 7.61 0.61 19.2
      vertex 8.97 8.97 19.2
    endloop
  endfacet
  facet normal 0 0 -1
    outer loop
      vertex 8.97 -0.75 19.2
      vertex 0.61 0.61 19.2
      vertex 7.61 0.61 19.2
    endloop
  endfacet
  facet normal -0 0 -1
    outer loop
      vertex 0.61 0.61 19.2
      vertex -0.75 -0.75 19.2
      vertex 0.61 7.61 19.2
    endloop
  endfacet
  facet normal 0 0 -1
    outer loop
      vertex -0.75 -0.75 19.2
      vertex 0.61 0.61 19.2
      vertex 8.97 -0.75 19.2
    endloop
  endfacet
  facet normal 0 0 -1
    outer loop
      vertex 7.61 7.61 19.2
      vertex 8.97 8.97 19.2
      vertex 7.61 0.61 19.2
    endloop
  endfacet
  facet normal 0 0 -1
    outer loop
      vertex 0.61 7.61 19.2
      vertex 8.97 8.97 19.2
      vertex 7.61 7.61 19.2
    endloop
  endfacet
  facet normal 0 0 -1
    outer loop
      vertex 0.61 7.61 19.2
      vertex -0.75 8.97 19.2
      vertex 8.97 8.97 19.2
    endloop
  endfacet
  facet normal 0 0 -1
    outer loop
      vertex -0.75 8.97 19.2
      vertex 0.61 7.61 19.2
      vertex -0.75 -0.75 19.2
    endloop
  endfacet
  facet normal 0 -1 0
    outer loop
      vertex -0.75 -0.75 19.2
      vertex 8.97 -0.75 20.2
      vertex -0.75 -0.75 20.2
    endloop
  endfacet
  facet normal 0 -1 -0
    outer loop
      vertex 8.97 -0.75 20.2
      vertex -0.75 -0.75 19.2
      vertex 8.97 -0.75 19.2
    endloop
  endfacet
  facet normal 1 -0 0
    outer loop
      vertex 0.61 0.61 19.5867
      vertex 0.61 7.61 19.2
      vertex 0.61 7.61 19.5867
    endloop
  endfacet
  facet normal 1 0 0
    outer loop
      vertex 0.61 7.61 19.2
      vertex 0.61 0.61 19.5867
      vertex 0.61 0.61 19.2
    endloop
  endfacet
  facet normal -1 0 0
    outer loop
      vertex 7.61 0.61 19.2
      vertex 7.61 7.61 19.5867
      vertex 7.61 7.61 19.2
    endloop
  endfacet
  facet normal -1 -0 0
    outer loop
      vertex 7.61 7.61 19.5867
      vertex 7.61 0.61 19.2
      vertex 7.61 0.61 19.5867
    endloop
  endfacet
  facet normal 0 1 -0
    outer loop
      vertex 7.61 0.61 19.2
      vertex 0.61 0.61 19.5867
      vertex 7.61 0.61 19.5867
    endloop
  endfacet
  facet normal 0 1 0
    outer loop
      vertex 0.61 0.61 19.5867
      vertex 7.61 0.61 19.2
      vertex 0.61 0.61 19.2
    endloop
  endfacet
  facet normal 0 -1 0
    outer loop
      vertex 0.61 7.61 19.2
      vertex 7.61 7.61 19.5867
      vertex 0.61 7.61 19.5867
    endloop
  endfacet
  facet normal 0 -1 -0
    outer loop
      vertex 7.61 7.61 19.5867
      vertex 0.61 7.61 19.2
      vertex 7.61 7.61 19.2
    endloop
  endfacet
  facet normal -0 0 1
    outer loop
      vertex 3.235 7.36 10
      vertex 4.985 0.86 10
      vertex 4.985 7.36 10
    endloop
  endfacet
  facet normal 0 0 1
    outer loop
      vertex 4.985 0.86 10
      vertex 3.235 7.36 10
      vertex 3.235 0.86 10
    endloop
  endfacet
  facet normal 0 0.962964 -0.26963
    outer loop
      vertex 4.16 6.91 7.5
      vertex 3.52964 7.36 9.10714
      vertex 4.69036 7.36 9.10714
    endloop
  endfacet
  facet normal 0 0.962964 -0.26963
    outer loop
      vertex 3.52964 7.36 9.10714
      vertex 4.16 6.91 7.5
      vertex 4.06 6.91 7.5
    endloop
  endfacet
  facet normal -0.949629 -1.25396e-08 -0.313377
    outer loop
      vertex 3.52964 0.86 9.10714
      vertex 3.52964 7.36 9.10714
      vertex 4.06 6.91 7.5
    endloop
  endfacet
  facet normal -0.949629 0 -0.313377
    outer loop
      vertex 3.52964 0.86 9.10714
      vertex 4.06 6.91 7.5
      vertex 4.06 1.31 7.5
    endloop
  endfacet
  facet normal -0.949629 -1.25397e-08 -0.313377
    outer loop
      vertex 3.52964 7.36 9.10714
      vertex 3.52964 0.86 9.10714
      vertex 3.235 7.36 10
    endloop
  endfacet
  facet normal -0.949629 -0 -0.313377
    outer loop
      vertex 3.235 7.36 10
      vertex 3.52964 0.86 9.10714
      vertex 3.235 0.86 10
    endloop
  endfacet
  facet normal 0 -0.962964 -0.26963
    outer loop
      vertex 4.06 1.31 7.5
      vertex 4.69036 0.86 9.10714
      vertex 3.52964 0.86 9.10714
    endloop
  endfacet
  facet normal 0 -0.962964 -0.26963
    outer loop
      vertex 4.69036 0.86 9.10714
      vertex 4.06 1.31 7.5
      vertex 4.16 1.31 7.5
    endloop
  endfacet
  facet normal 0 0 -1
    outer loop
      vertex 4.06 1.31 7.5
      vertex 4.16 6.91 7.5
      vertex 4.16 1.31 7.5
    endloop
  endfacet
  facet normal -0 0 -1
    outer loop
      vertex 4.16 6.91 7.5
      vertex 4.06 1.31 7.5
      vertex 4.06 6.91 7.5
    endloop
  endfacet
  facet normal 0.949629 -4.73718e-08 -0.313377
    outer loop
      vertex 4.69036 0.86 9.10714
      vertex 4.69036 7.36 9.10714
      vertex 4.985 7.36 10
    endloop
  endfacet
  facet normal 0.949629 -4.73717e-08 -0.313377
    outer loop
      vertex 4.69036 7.36 9.10714
      vertex 4.69036 0.86 9.10714
      vertex 4.16 6.91 7.5
    endloop
  endfacet
  facet normal 0.949629 0 -0.313378
    outer loop
      vertex 4.69036 0.86 9.10714
      vertex 4.985 7.36 10
      vertex 4.985 0.86 10
    endloop
  endfacet
  facet normal 0.949629 0 -0.313377
    outer loop
      vertex 4.16 6.91 7.5
      vertex 4.69036 0.86 9.10714
      vertex 4.16 1.31 7.5
    endloop
  endfacet
  facet normal -0.759983 0 0.649943
    outer loop
      vertex 7.61 0.61 19.5867
      vertex 8.13448 8.13448 20.2
      vertex 7.61 7.61 19.5867
    endloop
  endfacet
  facet normal -0.759983 0 0.649943
    outer loop
      vertex 8.13448 8.13448 20.2
      vertex 7.61 0.61 19.5867
      vertex 8.13448 0.0855202 20.2
    endloop
  endfacet
  facet normal 0 0.759983 0.649943
    outer loop
      vertex 7.61 0.61 19.5867
      vertex 0.0855202 0.0855202 20.2
      vertex 8.13448 0.0855202 20.2
    endloop
  endfacet
  facet normal 0 0.759983 0.649943
    outer loop
      vertex 0.0855202 0.0855202 20.2
      vertex 7.61 0.61 19.5867
      vertex 0.61 0.61 19.5867
    endloop
  endfacet
  facet normal 0 -0.759983 0.649943
    outer loop
      vertex 0.61 7.61 19.5867
      vertex 8.13448 8.13448 20.2
      vertex 0.0855202 8.13448 20.2
    endloop
  endfacet
  facet normal 0 -0.759983 0.649943
    outer loop
      vertex 8.13448 8.13448 20.2
      vertex 0.61 7.61 19.5867
      vertex 7.61 7.61 19.5867
    endloop
  endfacet
  facet normal 0.759983 0 0.649943
    outer loop
      vertex 0.0855202 8.13448 20.2
      vertex 0.61 0.61 19.5867
      vertex 0.61 7.61 19.5867
    endloop
  endfacet
  facet normal 0.759983 0 0.649943
    outer loop
      vertex 0.61 0.61 19.5867
      vertex 0.0855202 8.13448 20.2
      vertex 0.0855202 0.0855202 20.2
    endloop
  endfacet
endsolid OpenSCAD_Model
